PathFileType	4	(X/Y/Z)	C:/Users/opensim2020/Desktop/walking_exp_matlab/subject06_walking21_straight_03.trc	
DataRate	CameraRate	NumFrames	NumMarkers	Units	OrigDataRate	OrigDataStartFrame	OrigNumFrames	
100.00	100.00	4	44	mm	100.00	1779	110	
Frame#	Time	LFHD			RFHD			LBHD			RBHD			C7			T10			CLAV			STRN			RBAK			LSHO			LUPA			LELB			LFRM			LWRA			LWRB			LFIN			RSHO			RUPA			RELB			RFRM			RWRA			RWRB			RFIN			LASI			RASI			LPSI			RPSI			LTHI			LKNE			LTIB			LANK			LHEE			LTOE			RTHI			RKNE			RTIB			RANK			RHEE			RTOE			*39			*40			*41			*42			*43			
		X1	Y1	Z1	X2	Y2	Z2	X3	Y3	Z3	X4	Y4	Z4	X5	Y5	Z5	X6	Y6	Z6	X7	Y7	Z7	X8	Y8	Z8	X9	Y9	Z9	X10	Y10	Z10	X11	Y11	Z11	X12	Y12	Z12	X13	Y13	Z13	X14	Y14	Z14	X15	Y15	Z15	X16	Y16	Z16	X17	Y17	Z17	X18	Y18	Z18	X19	Y19	Z19	X20	Y20	Z20	X21	Y21	Z21	X22	Y22	Z22	X23	Y23	Z23	X24	Y24	Z24	X25	Y25	Z25	X26	Y26	Z26	X27	Y27	Z27	X28	Y28	Z28	X29	Y29	Z29	X30	Y30	Z30	X31	Y31	Z31	X32	Y32	Z32	X33	Y33	Z33	X34	Y34	Z34	X35	Y35	Z35	X36	Y36	Z36	X37	Y37	Z37	X38	Y38	Z38	X39	Y39	Z39	X40	Y40	Z40	X41	Y41	Z41	X42	Y42	Z42	X43	Y43	Z43	X44	Y44	Z44	

14	0.130	-1083.55432	-639.57648	1666.58569	-953.72693	-644.57178	1650.36023	-1091.70789	-772.99945	1610.91553	-962.18628	-775.46179	1600.24902	-1031.66931	-773.89923	1452.97400	-1018.01215	-823.28632	1128.31140	-1035.91504	-666.77954	1371.26074	-1042.06860	-634.48541	1193.93103	-948.37390	-849.33429	1287.37549	-1193.08069	-733.23425	1406.40198	-1260.97449	-747.50122	1204.90613	-1271.26709	-752.32172	1092.14587	-1296.56873	-696.36102	953.35388	-1264.76978	-597.25281	867.22583	-1289.61108	-658.80029	839.54364	-1299.51538	-591.93726	779.20789	-873.89325	-705.33905	1408.74951	-780.08698	-753.05023	1216.32568	-764.92450	-754.15784	1094.78345	-746.34576	-736.43146	976.40668	-779.73474	-672.86212	838.72772	-736.38794	-725.26465	839.81757	-738.03284	-688.93060	763.13641	-1136.04883	-667.71918	956.48578	-917.73169	-650.85272	965.64294	-1097.16699	-821.17218	990.26514	-930.36029	-801.10681	997.90771	-1203.13684	-699.93146	645.50568	-1193.73767	-658.61871	487.18524	-1177.78235	-826.61548	308.59811	-1135.92285	-938.41858	179.76430	-1083.86365	-972.59192	188.21008	-1156.99744	-849.34192	68.29190	-874.74744	-696.78021	629.65491	-910.31342	-690.69122	506.65073	-918.47736	-759.02173	245.94785	-972.72693	-799.74481	66.87375	-1012.79077	-847.52185	44.66405	-991.74933	-650.24121	32.34467	-1027.66772	-743.20386	1701.53162												 
15	0.140	-1083.94519	-626.43781	1666.24695	-954.21643	-631.01147	1650.12866	-1091.56323	-760.10004	1610.93604	-962.05511	-762.09241	1600.39600	-1031.59265	-761.19629	1452.91296	-1018.16876	-810.90869	1128.25256	-1036.05737	-654.21350	1371.10486	-1042.07300	-622.11810	1193.79053	-948.02783	-836.49365	1287.41211	-1193.23230	-720.74310	1406.20801	-1261.12659	-737.19110	1204.61682	-1270.84216	-743.52594	1091.62341	-1296.52039	-692.63074	950.83801	-1265.55322	-596.57440	860.63153	-1289.96143	-659.50336	835.68585	-1300.65417	-595.24182	772.72754	-873.95508	-692.24384	1408.71204	-779.86108	-738.80823	1216.04004	-764.87390	-739.01379	1094.64697	-746.56079	-718.50891	976.76794	-780.52582	-651.21155	841.20422	-736.72113	-703.45422	840.95959	-739.03473	-664.76007	765.08936	-1135.67029	-654.52063	956.99976	-917.73431	-639.09277	965.12854	-1097.94238	-808.35663	990.49402	-930.90753	-789.39673	997.59619	-1202.91028	-680.55347	646.98993	-1192.61536	-635.45380	490.00449	-1177.40747	-796.73871	304.73520	-1136.09460	-902.48883	170.51913	-1083.99133	-937.23486	177.02634	-1158.08228	-807.10443	64.89678	-875.22522	-689.29993	628.79993	-909.83405	-685.36139	505.60645	-918.13562	-756.85748	245.75829	-972.73645	-799.50549	66.98489	-1012.85315	-847.39459	45.03798	-991.34662	-650.09509	32.08918	-1027.67969	-729.85712	1701.47668												 
16	0.150	-1085.15686	-614.04993	1665.84009	-954.55542	-617.51416	1649.73230	-1091.45923	-747.16431	1610.77844	-961.94043	-748.74231	1600.33838	-1031.54260	-748.39215	1452.77051	-1018.27386	-798.37781	1127.96875	-1036.23059	-641.50037	1370.76538	-1042.07104	-609.62805	1193.48914	-947.63104	-823.66809	1287.25928	-1193.45728	-708.30804	1405.59399	-1260.95520	-726.81567	1204.05591	-1270.61230	-734.51196	1091.09644	-1296.78027	-688.92029	948.46460	-1266.26196	-596.21094	854.22052	-1290.53979	-660.35516	832.12958	-1301.79590	-598.76849	766.62701	-874.06671	-679.14575	1408.52246	-779.78735	-724.69470	1215.65796	-764.86395	-724.14520	1094.42957	-746.84399	-700.68555	977.13391	-781.32397	-629.07971	843.88727	-737.43787	-681.29456	842.02673	-740.01898	-640.25427	767.35461	-1135.28662	-641.36530	957.30896	-917.61505	-627.34711	964.49652	-1098.74719	-795.46655	990.48126	-931.46234	-777.77356	997.22504	-1203.11267	-661.77222	648.56470	-1191.45508	-612.87610	492.77487	-1177.00000	-766.53516	300.32791	-1136.40784	-865.43286	160.73401	-1083.96582	-900.81055	165.24908	-1158.08496	-765.83972	60.43833	-875.36810	-681.67352	628.17047	-909.41138	-679.86835	504.60025	-918.01758	-754.73645	245.58531	-972.77246	-799.23389	67.19334	-1012.94672	-847.26007	45.54759	-991.24652	-649.83972	31.89626	-1027.78247	-716.47150	1701.21155												 
17	0.160	-1085.10315	-600.65363	1664.96777	-954.94086	-604.05896	1649.14624	-1091.32886	-734.25562	1610.30688	-961.82635	-735.40253	1599.96143	-1031.51550	-735.47815	1452.28601	-1018.34796	-785.83490	1127.57361	-1036.39270	-628.76923	1370.31006	-1042.14038	-597.08710	1193.00647	-947.25220	-810.78491	1286.90076	-1193.55603	-695.88745	1404.95020	-1261.38428	-716.47888	1203.51868	-1270.62439	-725.37646	1090.55920	-1297.06677	-684.99164	946.28571	-1266.87952	-596.11292	848.05219	-1291.27649	-661.32483	828.85809	-1302.86902	-602.50354	760.91937	-874.18945	-666.11316	1408.15088	-779.83569	-710.98492	1215.13684	-764.93781	-709.52948	1094.07703	-747.18597	-682.96448	977.47650	-782.17706	-606.93555	846.80890	-738.46924	-659.29791	843.22284	-740.97797	-615.88330	769.95685	-1134.86206	-628.04895	957.44781	-917.46759	-615.69818	963.64508	-1099.56665	-782.52795	990.23254	-932.18298	-765.95300	996.64368	-1202.97205	-643.00214	649.99359	-1190.36377	-590.92224	495.37509	-1176.54248	-736.10022	295.52255	-1136.33826	-827.93768	150.88141	-1083.41003	-864.24286	153.68457	-1158.27832	-722.63672	56.86848	-875.75385	-673.94958	627.40063	-908.72229	-674.28955	503.55005	-917.91339	-752.64001	245.40001	-972.88269	-798.91608	67.50855	-1013.15295	-847.13574	46.17109	-991.02014	-649.67517	31.72505	-1027.80664	-703.12683	1700.81494												 
